<svg xmlns="http://www.w3.org/2000/svg" xmlns:xlink="http://www.w3.org/1999/xlink" viewBox="0 0 1264.95 1463.97"><defs><style>.cls-1{fill:url(#Dégradé_sans_nom_8);}.cls-2{font-size:194px;letter-spacing:0.03em;}.cls-2,.cls-3,.cls-4{fill:#fff;}.cls-2,.cls-3{font-family:BERNIERSHADE, BERNIER™ SHADE;}.cls-3{font-size:105.42px;letter-spacing:-0.02em;}</style><linearGradient id="Dégradé_sans_nom_8" x1="143.93" y1="1022.09" x2="1122.45" y2="43.57" gradientUnits="userSpaceOnUse"><stop offset="0" stop-color="#ff0844"/><stop offset="1" stop-color="#ffb199"/></linearGradient></defs><title>logo</title><g id="Calque_2" data-name="Calque 2"><g id="Calque_4" data-name="Calque 4"><path class="cls-1" d="M650.43,0H639.82l-5.71.82H614.52C559.84.82,288.9,10.61,0,186.89,11.43,293,39.17,494.55,106.91,713.27c81.61,264.41,238.3,597.28,526.38,750.7,486.4-257.88,606.36-1029,631.66-1277.9C976.05,9.79,705.11,0,650.43,0Z"/><text class="cls-2" transform="translate(478.04 1149.77)">mmi</text><text class="cls-3" transform="translate(529.59 1298.48)">19/20</text><path class="cls-4" d="M849.07,300.67c-10.6-7.59-22.1-13.13-35.59-12.95-14.29.19-24.56,10.42-24.43,24.74.11,13.23,5.38,24.62,13.33,34.94,8.59,11.14,18.56,20.67,31,27.45,9.41,5.13,19.38,7.76,30.09,6.61a23.2,23.2,0,0,0,20-25.32c.3-10.09-3.5-19-8.45-27.41A91.37,91.37,0,0,0,849.07,300.67Z"/><path class="cls-4" d="M489.83,694.77c-2.12-.78-3.88-.13-5.55,1.58-12.74,13-25.58,26-38.37,39Q429.52,752,413.14,768.6c-1.92,1.94-2.93,3.9-1.26,6.42,1.8,2.69,4.63,2.78,7.4,0,10.52-10.6,21-21.29,31.45-31.91Q470.56,723,490.45,703a7.5,7.5,0,0,0,2-3.78C492.36,697.23,491.76,695.47,489.83,694.77Z"/><path class="cls-4" d="M896.27,375.43a4,4,0,0,0-5.56.68,26.66,26.66,0,0,0-2.34,3.24c-5.29,8.22-13,11.9-22.57,12.47A61.55,61.55,0,0,1,842,388.33a96.84,96.84,0,0,1-11.07-4.68c-1.75-.87-3.47-1.78-5.19-2.69s-3.42-2.44-5.56-1.78a8.58,8.58,0,0,0-4.65,4.65,1.31,1.31,0,0,0-.15.79,1.48,1.48,0,0,0,.64.76c13.89,10.18,28.56,13.89,45.4,15.87,4.21.4,9.24-.72,13.22-1.66,10.66-2.52,18.25-9,23.12-18.78A3.81,3.81,0,0,0,896.27,375.43Z"/><path class="cls-4" d="M832.63,282.82a81.44,81.44,0,0,1,24,12.72c2.27,1.69,4.83,1.81,6.73-.51,2-2.48.85-4.56-1.29-6.54a46,46,0,0,0-8.64-6c-12.19-6.9-25-11.9-39.3-11.57l-1.82,0c-11.64.18-21.91,3.72-30.17,12.24-1.89,2-2.22,4.37-.63,6.24a4.26,4.26,0,0,0,6.5.29C801.36,277.47,816.64,277.77,832.63,282.82Z"/><path class="cls-4" d="M815.4,373.76a87.94,87.94,0,0,1-20-20.8,4.16,4.16,0,0,0-3.11-2.08c-2.62.52-5.28.45-6.27,2.55-.89,1.88.94,3.57,2,5.11,5.69,7.89,12.6,14.64,19.89,21,3.11,2.73,7.2,1.48,8.43-2.58A2.63,2.63,0,0,0,815.4,373.76Z"/><path class="cls-4" d="M942,319.92a366,366,0,0,0-50.61-57.23C863.29,236.7,832.6,214.58,797,200c-20.52-8.43-41.6-14.25-64.12-11.77-19.15,2.11-34.17,10.8-42.76,28.57-6.57,13.59-7,28.14-4.88,42.8,2.94,20.13,10.25,38.81,19.42,56.84a290.79,290.79,0,0,0,25,40.15c4.56,6.23,16.36,20.16,17.35,21.29l0,.11c3.87,5.62,8.78,10.32,13.44,15.23,3.45,3.65,6.91,7.29,10.49,10.81,9.64,10,18.95,18.91,24.35,22,.16.09.33.17.49.24q6.23,5.1,12.67,9.94c24.3,18.2,50.18,33.46,79.3,42.69,18.82,6,37.88,9.47,57.61,4.6,15.42-3.81,27-12.5,33.85-26.89,7.63-16.09,7.06-33,3.64-49.94C976.23,374.43,960.74,346.34,942,319.92Zm-55.81-50.64-.14.2h0Zm89.21,168.08a44.46,44.46,0,0,1-7,20.12,36.24,36.24,0,0,1-13.19,12.36,59.8,59.8,0,0,1-22.41,6.73c-13.21,1.09-26.11-1.34-38.7-5.2a239.22,239.22,0,0,1-66.2-32.47c-9.22-6.36-18.24-12.94-26.87-20a4.69,4.69,0,0,0-1.27-1.06h0c-2.61-2.18-5.2-4.41-7.74-6.7-.68-.61-7.6-6.6-10.8-9.87a1.75,1.75,0,0,0-.61-.63c-13.48-13.82-37.53-41.39-37.86-41.62-16.79-21.65-31-44.86-40.69-70.7-6.14-16.28-9.78-33-8.52-50.5a45.36,45.36,0,0,1,5.68-19c8.21-14.59,21.43-20.7,37.47-21.76a107,107,0,0,1,39.8,5.17A229.87,229.87,0,0,1,819.79,221a328.43,328.43,0,0,1,32.1,20.68C865.05,251.22,877.16,262,889.2,273c4.4,4,8.5,8.28,12.49,12.67,6.51,7.18,13.15,14.27,19.33,21.72A301.65,301.65,0,0,1,945.19,341c10.89,17.57,20,35.91,25.76,55.9C974.78,410.18,976.89,423.49,975.42,437.36Z"/><path class="cls-4" d="M1023.18,437.36c-.86-26.46-8.3-51.39-18.79-75.48-10-22.9-22.82-44.16-37.56-64.3A422.33,422.33,0,0,0,898,224.19a373.21,373.21,0,0,0-66.05-45c-17.13-9.05-42.58-18.24-55.54-23.07A180.7,180.7,0,0,0,740.82,150a58.36,58.36,0,0,0-6.2-.3c-1.89-.06-3.72-.08-5.47-.07a97.65,97.65,0,0,0-21.79,1.65c-15.87,3-30.39,9-42.58,20-5.09,4.59-8.93,10.24-13.59,15.16a330.88,330.88,0,0,0-44.25,58.17,378,378,0,0,0-35.48,79.91c-9.31,29.32-15.75,59.31-20.63,89.64-3,18.34-5.65,36.73-8.31,55.11-3.08,21.27-5.91,42.59-10.55,63.59a222.81,222.81,0,0,1-51.74,101.71c-15,16.91-31.51,32.46-47.31,48.63-20.4,20.88-41,41.58-61.39,62.45-1.92,2-3.58,2.33-6,1.46a75.3,75.3,0,0,0-14.42-3.74c-14.36-2.14-28.69-3-41.9,4.55-16.43,9.37-26.86,23-27.48,42.56-.3,9.17,1.68,17.93,7.78,25.19,5.24,6.23,12.56,9,20.17,10.85,7.18,1.73,14.49,3,21.76,4.35,8.66,1.65,11.52,4.76,12.3,13.6.55,6.17.87,12.37,1.66,18.52,2.67,20.6,13.16,29.59,32.16,33.14,28.34,5.29,58.8-18.12,59.09-50.58.1-11.79-1.18-23.27-5.18-34.37-.87-2.43-.64-4.15,1.34-6.07,6.29-6.08,12.36-12.4,18.5-18.63,26.63-27,53.34-53.93,79.85-81,27.28-27.91,59.42-47.9,96.72-59.31,25.93-7.92,52.8-11.83,79.27-17.36,35.63-7.45,71.21-15.08,106.24-25,36.67-10.36,72.68-22.63,106.78-40,18.66-9.48,36.55-20.19,52.75-33.51,6.94-5.69,13.49-11.85,20.35-17.64a78.39,78.39,0,0,0,11.93-12.23C1019.44,481.82,1023.94,460.27,1023.18,437.36ZM542.07,652.86s0,.07,0,.11h0c-.11,1.72-.2,3.45-.31,5.17v.05l-.36,5.88c0,.21,0,.42,0,.63h0c-.23,3-.18,6.12-.53,9.16-.18,1.56-.37,3-1.76,4.21-19.46,16.6-36.51,35.67-54.55,53.73-22.33,22.37-44.38,45-66.62,67.49-3.27,3.31-4.08,6.47-2.32,11.09,5.44,14.22,8.79,28.87,5,44.14A36.16,36.16,0,0,1,371,878.93c-7.19-3.16-9.91-9.33-10.81-16.53-.76-6-1.12-12.08-1.69-18.51,2.89,1,4.27,3.33,6,5.13,3.33,3.43,7.32,4,10.59,1.17,3.43-2.94,3.57-7.15.37-10.93-8.18-9.67-18.88-15.44-30.54-19.71-8.6-3.15-17.61-4.5-26.56-6.11-1.78-.32-3.54-.83-5.32-1.2-15.3-3.13-18.61-13.23-15.72-27.58,3.46-17.19,20.26-28.71,38.89-28.09A87.43,87.43,0,0,1,366.3,763c4.5,1.82,7.85,1,11.14-2.31q35.15-35.78,70.38-71.45,15.49-15.71,31.08-31.32c.77-.77,9.71-10.44,12.49-13.6,4.22-4.79,8.23-9.76,12.53-14.9.75,3,1.4,5.66,2.05,8.3h0c.36,2,.83,4,1.08,6,1.89,15.07,6.47,12.34,16.46,10.87.17,0,8.65-1.74,14.7-2.94v0l2.56-.52a1.16,1.16,0,0,1,1.33,1.14ZM998.35,484c-10.28,17.89-26.26,27.75-46.13,31.72-12.75,2.55-25.59,2.4-38.46.72-26.39-3.44-50.86-12.65-74.4-24.67-34-17.39-64-40.38-91.19-67a380.47,380.47,0,0,1-62-78.36c-14.9-25.22-26.5-51.83-31.78-80.8-3.49-19.17-4-38.37,2.89-57.07,8-21.65,23.58-35.07,45.67-41,18.13-4.9,36.36-3.8,54.54-.21C781,172,803,180.66,824.14,191.84c28.94,15.34,55,34.67,79,56.85a394,394,0,0,1,65.12,77.19c16.26,25.37,29.07,52.37,36,81.88,2.56,10.89,4.14,21.94,4.12,28.63C1008.46,456.09,1006,470.72,998.35,484Z"/></g></g></svg>