<svg xmlns="http://www.w3.org/2000/svg" xmlns:xlink="http://www.w3.org/1999/xlink" viewBox="0 0 1264.95 1463.97"><defs><style>.cls-1{fill:url(#Dégradé_sans_nom_8);}.cls-2{fill:#fff;}</style><linearGradient id="Dégradé_sans_nom_8" x1="143.93" y1="1022.09" x2="1122.45" y2="43.57" gradientUnits="userSpaceOnUse"><stop offset="0" stop-color="#ff0844"/><stop offset="1" stop-color="#ffb199"/></linearGradient></defs><title>logo_1</title><g id="Calque_2" data-name="Calque 2"><g id="Calque_4" data-name="Calque 4"><path class="cls-1" d="M650.43,0H639.82l-5.71.82H614.52C559.84.82,288.9,10.61,0,186.89,11.43,293,39.17,494.55,106.91,713.27c81.61,264.41,238.3,597.28,526.38,750.7,486.4-257.88,606.36-1029,631.66-1277.9C976.05,9.79,705.11,0,650.43,0Z"/><path class="cls-2" d="M579.68,1149.11a57.7,57.7,0,0,1-15.15.09q-2.94-.37-3.32-3.69a54.13,54.13,0,0,1-.28-6.06v-25.1a28.09,28.09,0,0,0-1.9-11.18,1.31,1.31,0,0,0-1.23-.67,1.72,1.72,0,0,0-1.32.67q-1.14,1.32-2,5.59-.76,3.49-2.09,10-1.41,6.92-2.08,10-2.09,9.75-3.32,14.87c-.5,2.27-1.2,3.76-2.08,4.45s-2.37,1.2-4.64,1.33a72.2,72.2,0,0,1-8.34-.1,7.09,7.09,0,0,1-4-1.13,7.53,7.53,0,0,1-1.8-3.7q-.95-3.88-2.36-10-1.9-8-2.37-9.94-3.13-13.36-4.93-20.75a34.46,34.46,0,0,0-1.89-4.92,1.35,1.35,0,0,0-1.9-.76,1.81,1.81,0,0,0-1.13.85q-.85,1.8-.86,6.73v32.77a49.91,49.91,0,0,1-.38,6.82,4.12,4.12,0,0,1-4.07,3.88,64.68,64.68,0,0,1-14.4.1q-3.4-.37-3.79-4.07c-.12-1.39-.19-3.67-.19-6.82V1025a62.54,62.54,0,0,1,.29-6.82c.31-2.46,1.64-3.73,4-3.79q9.94-.2,23.58,0,3.42,0,4.17,3.69,1.33,5.79,2.84,13.45,1.23,6.26,5,25.39,3,15.82,4.93,25.29.38,1.71,1.52,5.12a2.36,2.36,0,0,0,2.27,1.8c1.07.06,2-.7,2.65-2.28a5.91,5.91,0,0,0,.38-1.42q1.23-6.43,4.64-25.1,2.94-15.63,4.74-25c.38-2.08.88-4.8,1.51-8.14.89-4.42,1.42-7.17,1.61-8.24.63-3,2.37-4.58,5.21-4.65q13.17-.18,22.08,0c2.58.07,4,1.55,4.26,4.46.12,1.13.19,3.15.19,6.06v113.29a69,69,0,0,1-.29,6.92Q583.1,1148.73,579.68,1149.11Zm-64.22-25.67v18.19a53.82,53.82,0,0,1-.38,6.91q-.48,4.45-5,4.93a57.6,57.6,0,0,1-7.39.47,58.49,58.49,0,0,1-6.35-.38,4.16,4.16,0,0,0,2.47,1.14,65.53,65.53,0,0,0,14.49-.1,4.09,4.09,0,0,0,4-3.88,51.57,51.57,0,0,0,.38-6.82v-25.39c-.51-2.27-1.2-5.24-2.09-8.9Zm12-89q-1.51-7.66-2.75-13.45c0,.13-.12-.16-.38-.85a4.69,4.69,0,0,1,2.56,3.41q1.23,5.77,2.75,13.35,1.43,7.2,4.26,21.6t4.26,21.6l-.85,4.36q-1.71-8.54-5.59-28.71Zm31.16,92.93c-.56,2.71-1,5-1.42,6.91q-2.09,9.66-3.31,14.87c-.51,2.21-1.17,3.67-2,4.36s-2.46,1.2-4.74,1.33a74.3,74.3,0,0,1-8.33-.1,7.06,7.06,0,0,1-4-1.13h.57c1.51.12,3.06.19,4.64.19,1.32,0,2.62,0,3.88-.1q3.79-.2,5.4-1.51a10.72,10.72,0,0,0,2.46-5.12q1.14-5.11,3.23-14.87c.44-2.15,1.07-5.27,1.89-9.38q.66-3,1.7-8Zm31.83-103.25q.19,1.8.19,6.06v113.39a66.38,66.38,0,0,1-.28,6.82c-.25,2.46-1.52,3.85-3.79,4.16a60.08,60.08,0,0,1-15.16,0,3.6,3.6,0,0,1-2.08-1,58.34,58.34,0,0,0,6.35.38,52,52,0,0,0,7.76-.57c2.85-.38,4.42-2.08,4.74-5.11q.28-2.74.28-6.92.1-53,0-113.39v-.56a48.48,48.48,0,0,0-.09-5.59,9,9,0,0,0-.47-1.71Q590.2,1020.86,590.48,1024.17Z"/><path class="cls-2" d="M707.39,1149.11a57.7,57.7,0,0,1-15.15.09q-2.94-.37-3.32-3.69a54.13,54.13,0,0,1-.28-6.06v-25.1a28.09,28.09,0,0,0-1.9-11.18,1.31,1.31,0,0,0-1.23-.67,1.72,1.72,0,0,0-1.32.67q-1.14,1.32-2,5.59-.76,3.49-2.09,10-1.41,6.92-2.08,10-2.09,9.75-3.32,14.87c-.5,2.27-1.2,3.76-2.08,4.45s-2.37,1.2-4.64,1.33a72.2,72.2,0,0,1-8.34-.1,7.09,7.09,0,0,1-4-1.13,7.62,7.62,0,0,1-1.8-3.7q-.95-3.88-2.36-10-1.9-8-2.37-9.94-3.14-13.36-4.93-20.75a33.27,33.27,0,0,0-1.89-4.92,1.35,1.35,0,0,0-1.9-.76,1.81,1.81,0,0,0-1.13.85q-.85,1.8-.86,6.73v32.77a49.91,49.91,0,0,1-.38,6.82,4.12,4.12,0,0,1-4.07,3.88,64.68,64.68,0,0,1-14.4.1q-3.41-.37-3.79-4.07c-.12-1.39-.19-3.67-.19-6.82V1025a62.54,62.54,0,0,1,.29-6.82c.31-2.46,1.64-3.73,4-3.79q9.95-.2,23.58,0,3.42,0,4.17,3.69,1.33,5.79,2.84,13.45,1.23,6.26,5,25.39,3,15.82,4.93,25.29.38,1.71,1.52,5.12a2.36,2.36,0,0,0,2.27,1.8c1.07.06,2-.7,2.65-2.28a5.91,5.91,0,0,0,.38-1.42q1.23-6.43,4.64-25.1,2.94-15.63,4.74-25c.38-2.08.88-4.8,1.51-8.14.89-4.42,1.42-7.17,1.61-8.24.63-3,2.37-4.58,5.21-4.65q13.17-.18,22.08,0c2.58.07,4,1.55,4.26,4.46.12,1.13.19,3.15.19,6.06v113.29a69,69,0,0,1-.29,6.92Q710.81,1148.73,707.39,1149.11Zm-64.22-25.67v18.19a53.82,53.82,0,0,1-.38,6.91q-.48,4.45-5,4.93a55.78,55.78,0,0,1-13.73.09,4.1,4.1,0,0,0,2.46,1.14,65.53,65.53,0,0,0,14.49-.1,4.09,4.09,0,0,0,4-3.88,51.57,51.57,0,0,0,.38-6.82v-25.39c-.51-2.27-1.2-5.24-2.09-8.9Zm12-89q-1.51-7.66-2.75-13.45c0,.13-.12-.16-.38-.85a4.69,4.69,0,0,1,2.56,3.41q1.23,5.77,2.75,13.35,1.43,7.2,4.26,21.6t4.26,21.6l-.85,4.36q-1.69-8.54-5.59-28.71Zm31.17,92.93c-.57,2.71-1,5-1.43,6.91q-2.09,9.66-3.31,14.87c-.51,2.21-1.17,3.67-2,4.36s-2.46,1.2-4.74,1.33a74.3,74.3,0,0,1-8.33-.1,7.06,7.06,0,0,1-4-1.13h.57c1.51.12,3.06.19,4.64.19,1.33,0,2.62,0,3.88-.1q3.8-.2,5.4-1.51a10.72,10.72,0,0,0,2.46-5.12q1.14-5.11,3.23-14.87c.44-2.15,1.07-5.27,1.89-9.38q.66-3,1.71-8Zm31.82-103.25q.19,1.8.19,6.06v113.39a66.38,66.38,0,0,1-.28,6.82c-.25,2.46-1.52,3.85-3.79,4.16a60.08,60.08,0,0,1-15.16,0,3.6,3.6,0,0,1-2.08-1,58.34,58.34,0,0,0,6.35.38,52,52,0,0,0,7.76-.57c2.85-.38,4.42-2.08,4.74-5.11q.29-2.74.28-6.92.1-53,0-113.39v-.56a46.28,46.28,0,0,0-.09-5.59,9,9,0,0,0-.47-1.71Q717.91,1020.86,718.19,1024.17Z"/><path class="cls-2" d="M766.05,1140q0,7.2-1.33,8.52T756.2,1150q-5.4,0-8.34-.28a4.59,4.59,0,0,1-4.36-4.45,50.06,50.06,0,0,1-.28-6.16v-114.9q0-7.11,1.42-8.43c.88-.89,3.73-1.33,8.53-1.33,3.79,0,6.59.06,8.43.19,2.59.25,4,1.74,4.26,4.45q.2,2,.19,6.82V1140Zm6.91-52.39v-56.36q0-4.83-.19-6.82c-.18-2.08-1-3.44-2.46-4.07.19.75.32,1.32.38,1.7.13,1.39.19,3.48.19,6.25v114.91q0,7.58-1.7,9.28t-9.29,1.71h-1.23q-3.79,0-6.63-.29a5.16,5.16,0,0,0,2.75,1.14q2.93.29,8.43.28,7.1,0,8.43-1.32t1.32-8.53Z"/><path class="cls-2" d="M555.59,1292.72c0,2.81-.28,4.46-.82,4.94s-2.22.77-5.1.77c-1.41,0-2.64-.1-3.71-.21a1.9,1.9,0,0,1-1.85-1.9q-.15-1.8-.15-4.17-.06-7.73-.06-20.69v-20.75a23.77,23.77,0,0,0-.41-5.35,3,3,0,0,0-2.88-2.47l-2.11-.05c-.82,0-1.51-.07-2.06-.11a2.38,2.38,0,0,1-2.32-2.42,41.87,41.87,0,0,1,.06-4.53,2.64,2.64,0,0,1,2-2.47c.17-.07.43-.15.77-.25a5.66,5.66,0,0,0,.78-.26q5.51-1.9,7.87-5.77a4.91,4.91,0,0,1,4.84-2.42h.41c2.13,0,3.45.21,4,.72s.79,1.86.82,4v63.37ZM542.1,1245.2c.11.24.17.42.21.52v0c-.86,0-1.55-.07-2.06-.1a2.83,2.83,0,0,1-1.65-.62,22.28,22.28,0,0,0,2.32.1l.51,0Zm17.25,19.41v-32.33c0-2.54-.5-4-1.5-4.42a12.53,12.53,0,0,1,.31,3.19q.06,7.31.05,23.37l-.05,16.68q.06,14.57,0,23.31,0,4.33-.82,5.25c-.62.73-2.25,1.09-4.89,1.09h-.77a28.21,28.21,0,0,1-3.19-.16,1.91,1.91,0,0,0,1.23.57,31.36,31.36,0,0,0,3.76.2q4.32,0,5.1-.72c.51-.51.77-2.18.77-5Z"/><path class="cls-2" d="M570.71,1296.53a17.37,17.37,0,0,1-6.17-8.6,13.46,13.46,0,0,1-.67-5.72c.17-1.54.94-2.34,2.31-2.41q2.88-.1,7.83,0a2.2,2.2,0,0,1,2.11,1.69c.62,1.75.89,2.53.82,2.32a4.75,4.75,0,0,0,2.47,2.63,3.35,3.35,0,0,0,3.86-.31,6.19,6.19,0,0,0,2.53-4.12,29.17,29.17,0,0,0,.05-8.6q-.47-2.92-3.5-2.42a25.31,25.31,0,0,1-5.72.42q-9.11-.53-11.79-9.22a21,21,0,0,1-1-6.07q0-15.6,0-15.7.4-11.54,10.76-15.09,7.56-2.57,13.89.57t8.7,10.66a16.23,16.23,0,0,1,.42,4.53q0,3.18.05,21-.06,20.22-.05,21a16.05,16.05,0,0,1-4.69,11.69,16.61,16.61,0,0,1-11.79,4.73A17.18,17.18,0,0,1,570.71,1296.53Zm7.11-22.35-2.22-.92a19.37,19.37,0,0,0,2.94.46,10,10,0,0,0,1.08,0,29,29,0,0,0,4.79-.46l.1,0h0a1.73,1.73,0,0,1,.05.31,1.73,1.73,0,0,0,0,.31v.25a23,23,0,0,1-4.27.21Zm7.92-32.43-.67-1.64a4.76,4.76,0,0,0-2.16-2.37,3.4,3.4,0,0,0-4.48.51,7,7,0,0,0-2.11,4.79c0,.24-.05,2.15-.05,5.72v5.35a9.57,9.57,0,0,0,1.29,4.68,3.88,3.88,0,0,0,3.86,1.91,3.66,3.66,0,0,0,3.5-2.37,12.39,12.39,0,0,0,.67-2.37,53.15,53.15,0,0,0,.21-13.48Zm15.65,2.27a15.77,15.77,0,0,0-.41-4.48,18.44,18.44,0,0,0-3.91-7,20.59,20.59,0,0,1,2.73,5.61,16.69,16.69,0,0,1,.46,4.22v28.21q0,9.53,0,14.26a16.6,16.6,0,0,1-4.94,12,16.91,16.91,0,0,1-12.15,5h-.51a19.71,19.71,0,0,1-5.1-.67,18,18,0,0,0,7.36,1.29,16.49,16.49,0,0,0,11.74-4.74,15.91,15.91,0,0,0,4.73-11.69q0-.72.05-21Q601.44,1247.37,601.39,1244ZM579,1283.86c.1.31.24.69.41,1.13l.57.37.26.1a7.63,7.63,0,0,0-.36-1,2.41,2.41,0,0,0-1.19-1.44Zm2.83-44.42-1,1a6.2,6.2,0,0,0-2,4.32q-.06,1.29,0,4v2.37h0v4.74a8.55,8.55,0,0,0,.67,3.24,2.25,2.25,0,0,0,.82.36A13.74,13.74,0,0,1,580,1257v-5.35c0-3.53,0-5.44.05-5.71a6.91,6.91,0,0,1,2.11-4.79,4,4,0,0,1,1.55-.93,2.54,2.54,0,0,0-.52-.77c-.31,0-.41,0-.31,0Z"/><path class="cls-2" d="M609.1,1301.36c-2.81.07-4.39-.27-4.73-1-.21-.48.15-1.93,1.08-4.37q4.53-11.79,11.38-29.86,10.29-27,11.37-29.85.36-.93,2.52-6.44,1.5-3.91,2.42-6.43a4.3,4.3,0,0,1,4.74-3.19c.48,0,1.3.06,2.47.1a23.87,23.87,0,0,1,2.52.1c1.24.1,1.72.81,1.44,2.11a22.47,22.47,0,0,1-.77,2.42l-7.77,20.28q-5,13.08-7.77,20.29-1.65,4.32-12,31.6c-.27.69-.46,1.22-.57,1.6a3.59,3.59,0,0,1-3.75,2.67Zm39-75.87a1.47,1.47,0,0,0-1.18-2,2.57,2.57,0,0,1-.05.88,16.79,16.79,0,0,1-.72,2.47l-15.6,40.61q-1.91,5.1-8.8,23.17l-3.25,8.44c-.24.68-.42,1.2-.56,1.54a4.13,4.13,0,0,1-4.33,3.14H610a10.37,10.37,0,0,1-1.59-.1q.76.82,4.47.72h2.53a3.59,3.59,0,0,0,3.75-2.68c.11-.34.29-.87.57-1.59q11-28.83,12-31.61,2.78-7.2,7.77-20.28l7.77-20.28A16.7,16.7,0,0,0,648.12,1225.49Z"/><path class="cls-2" d="M655.47,1298.38c-1.23,0-2.05,0-2.47-.05a3.65,3.65,0,0,1-2.21-.67,3.24,3.24,0,0,1-.67-2.06c-.07-1.44-.07-3.66,0-6.64a10.12,10.12,0,0,1,2.06-5.36q2.12-3.07,8.34-11.89,8.54-12.2,10.45-15.49a40.4,40.4,0,0,0,3.5-8.39,16.36,16.36,0,0,0,.36-5.77,6.39,6.39,0,0,0-1.34-3.45,5.45,5.45,0,0,0-4.22-2.31,5.15,5.15,0,0,0-4.32,2.06,9.5,9.5,0,0,0-2.27,4.84,6.78,6.78,0,0,0-.15,1.23c0,.59-.07,1-.11,1.24a3.48,3.48,0,0,1-.77,2.11,3,3,0,0,1-2.11.67,63.23,63.23,0,0,1-6.64,0,2.65,2.65,0,0,1-2.78-2.94q.21-12.26,8.65-18.43c.31-.24.65-.48,1-.72q3.13-2,9.42-1.8t9.68,2.57q10.14,7.62,8.13,20.8a35.57,35.57,0,0,1-5.87,14.93q-3.49,5.2-11.27,16.93c-.9,1.34-1.48,2.27-1.75,2.78a2.55,2.55,0,0,0-.31,2.27,2.24,2.24,0,0,0,1.9,1c.59.07,1.68.12,3.3.15h8.29a16.82,16.82,0,0,1,2.88.21,2.27,2.27,0,0,1,2.16,2.21,38.43,38.43,0,0,1,0,7.88,2.13,2.13,0,0,1-2.21,2c-.79.06-2.18.1-4.17.1Zm33.31-9a2.32,2.32,0,0,1,1.34,2,33.42,33.42,0,0,1,0,7.87,2.14,2.14,0,0,1-2.22,2.06c-.79.07-2.18.1-4.17.1H659.28c-1.27,0-2.11,0-2.52,0a3.72,3.72,0,0,1-2.11-.67h.15a.21.21,0,0,0,.16.06c.41,0,1,0,1.75,0H682.4c1.68,0,2.93,0,3.75-.11A2.76,2.76,0,0,0,689,1298a36.11,36.11,0,0,0-.05-8A3.22,3.22,0,0,0,688.78,1289.37Zm-32.07-38a60.62,60.62,0,0,0,6.64.05,3.25,3.25,0,0,0,2.11-.62,3.79,3.79,0,0,0,.77-2.16c0-.2.07-.62.11-1.23s.06-.93.1-1.24a10.55,10.55,0,0,1,2.26-4.84,5.34,5.34,0,0,1,3.76-2c-.14-.17-.31-.36-.51-.56a4.92,4.92,0,0,0-.83-.16,4.66,4.66,0,0,0-3.7,1.86,9.22,9.22,0,0,0-2.17,4.53c0,.31-.06.74-.1,1.28s-.07,1-.1,1.19a4.43,4.43,0,0,1-1,2.52,3.78,3.78,0,0,1-2.52.77c-1.07.07-2.06.11-3,.11-1.27,0-2.49-.06-3.65-.16A3,3,0,0,0,656.71,1251.33Zm29.65-17.86q6.07,6.9,4.48,17.34a36.84,36.84,0,0,1-5.87,15q-3.39,5.06-11.32,16.89-.82,1.23-1.29,2c-.59,0-1.17,0-1.75-.06l0-.1a20.22,20.22,0,0,1,1.49-2.37l.72-1.08,10.81-16.21a36.83,36.83,0,0,0,6-15.19c1-6.38,1.45-9.57,1.45-9.57Z"/><path class="cls-2" d="M696,1291.12l.15-9.37q.11-7.51.05-40.2,0-5.21,1.5-7.57,6.33-9.93,15.08-9.73c2.81.07,4,.09,3.65,0a12.9,12.9,0,0,1,8.81,3.92,28,28,0,0,1,4.42,5.35,15.49,15.49,0,0,1,1.91,7.41v20.54q0,18.59,0,20.13.11,9.88-8.91,15.13-9.21,5.35-18.32-.41Zm22.65-8.8a17.56,17.56,0,0,0,.56-4.89v-30.79c0-1.75,0-3.12-.1-4.11a6.69,6.69,0,0,0-2.37-4.64,4.62,4.62,0,0,0-3.55-1.23,4.76,4.76,0,0,0-3.4,1.65,6,6,0,0,0-1.59,3.29,28.23,28.23,0,0,0-.41,4.48q-.06,14.06,0,30.37a24.73,24.73,0,0,0,.3,4.12,10,10,0,0,0,1.19,3,5.08,5.08,0,0,0,5.35,2.32A4.65,4.65,0,0,0,718.68,1282.32Zm-7.16-2.94a20.63,20.63,0,0,0,.36,4.12c0,.17.12.48.26.93a2.31,2.31,0,0,1-.82-.47,7.07,7.07,0,0,1-.62-1.85,21.49,21.49,0,0,1-.31-4q-.06-16.32,0-30.37a28.18,28.18,0,0,1,.41-4.38,5.5,5.5,0,0,1,1.44-3,4.26,4.26,0,0,1,3.24-1.45,5.78,5.78,0,0,1,.73.11,6.3,6.3,0,0,1,.51.56,4.8,4.8,0,0,0-3.19,1.6,6.48,6.48,0,0,0-1.6,3.29,42.43,42.43,0,0,0-.41,4.48Zm23.83-35.46a15.12,15.12,0,0,0-2-7.42,14.71,14.71,0,0,0-2.06-3q.51.76.87,1.44a16.8,16.8,0,0,1,2,7.72q0,4.74-.05,14.77v11.9q0,9.21.05,14,.1,10.25-9.21,15.65a17.92,17.92,0,0,1-9.16,2.62,16.56,16.56,0,0,1-4.33-.62,16.7,16.7,0,0,0,15-1.28q9-5.25,8.85-15.14v-40.66Z"/><path class="cls-2" d="M849.07,300.67c-10.6-7.59-22.1-13.13-35.59-12.95-14.29.19-24.56,10.42-24.43,24.74.11,13.23,5.38,24.62,13.33,34.94,8.59,11.14,18.56,20.67,31,27.45,9.41,5.13,19.38,7.76,30.09,6.61a23.2,23.2,0,0,0,20-25.32c.3-10.09-3.5-19-8.45-27.41A91.37,91.37,0,0,0,849.07,300.67Z"/><path class="cls-2" d="M489.83,694.77c-2.12-.78-3.88-.13-5.55,1.58-12.74,13-25.58,26-38.37,39Q429.52,752,413.14,768.6c-1.92,1.94-2.93,3.9-1.26,6.42,1.8,2.69,4.63,2.78,7.4,0,10.52-10.6,21-21.29,31.45-31.91Q470.56,723,490.45,703a7.5,7.5,0,0,0,2-3.78C492.36,697.23,491.76,695.47,489.83,694.77Z"/><path class="cls-2" d="M896.27,375.43a4,4,0,0,0-5.56.68,26.66,26.66,0,0,0-2.34,3.24c-5.29,8.22-13,11.9-22.57,12.47A61.55,61.55,0,0,1,842,388.33a96.84,96.84,0,0,1-11.07-4.68c-1.75-.87-3.47-1.78-5.19-2.69s-3.42-2.44-5.56-1.78a8.58,8.58,0,0,0-4.65,4.65,1.31,1.31,0,0,0-.15.79,1.48,1.48,0,0,0,.64.76c13.89,10.18,28.56,13.89,45.4,15.87,4.21.4,9.24-.72,13.22-1.66,10.66-2.52,18.25-9,23.12-18.78A3.81,3.81,0,0,0,896.27,375.43Z"/><path class="cls-2" d="M832.63,282.82a81.44,81.44,0,0,1,24,12.72c2.27,1.69,4.83,1.81,6.73-.51,2-2.48.85-4.56-1.29-6.54a46,46,0,0,0-8.64-6c-12.19-6.9-25-11.9-39.3-11.57l-1.82,0c-11.64.18-21.91,3.72-30.17,12.24-1.89,2-2.22,4.37-.63,6.24a4.26,4.26,0,0,0,6.5.29C801.36,277.47,816.64,277.77,832.63,282.82Z"/><path class="cls-2" d="M815.4,373.76a87.94,87.94,0,0,1-20-20.8,4.16,4.16,0,0,0-3.11-2.08c-2.62.52-5.28.45-6.27,2.55-.89,1.88.94,3.57,2,5.11,5.69,7.89,12.6,14.64,19.89,21,3.11,2.73,7.2,1.48,8.43-2.58A2.63,2.63,0,0,0,815.4,373.76Z"/><path class="cls-2" d="M942,319.92a366,366,0,0,0-50.61-57.23C863.29,236.7,832.6,214.58,797,200c-20.52-8.43-41.6-14.25-64.12-11.77-19.15,2.11-34.17,10.8-42.76,28.57-6.57,13.59-7,28.14-4.88,42.8,2.94,20.13,10.25,38.81,19.42,56.84a290.79,290.79,0,0,0,25,40.15c4.56,6.23,16.36,20.16,17.35,21.29l0,.11c3.87,5.62,8.78,10.32,13.44,15.23,3.45,3.65,6.91,7.29,10.49,10.81,9.64,10,18.95,18.91,24.35,22,.16.09.33.17.49.24q6.23,5.1,12.67,9.94c24.3,18.2,50.18,33.46,79.3,42.69,18.82,6,37.88,9.47,57.61,4.6,15.42-3.81,27-12.5,33.85-26.89,7.63-16.09,7.06-33,3.64-49.94C976.23,374.43,960.74,346.34,942,319.92Zm-55.81-50.64-.14.2h0Zm89.21,168.08a44.46,44.46,0,0,1-7,20.12,36.24,36.24,0,0,1-13.19,12.36,59.8,59.8,0,0,1-22.41,6.73c-13.21,1.09-26.11-1.34-38.7-5.2a239.22,239.22,0,0,1-66.2-32.47c-9.22-6.36-18.24-12.94-26.87-20a4.69,4.69,0,0,0-1.27-1.06h0c-2.61-2.18-5.2-4.41-7.74-6.7-.68-.61-7.6-6.6-10.8-9.87a1.75,1.75,0,0,0-.61-.63c-13.48-13.82-37.53-41.39-37.86-41.62-16.79-21.65-31-44.86-40.69-70.7-6.14-16.28-9.78-33-8.52-50.5a45.36,45.36,0,0,1,5.68-19c8.21-14.59,21.43-20.7,37.47-21.76a107,107,0,0,1,39.8,5.17A229.87,229.87,0,0,1,819.79,221a328.43,328.43,0,0,1,32.1,20.68C865.05,251.22,877.16,262,889.2,273c4.4,4,8.5,8.28,12.49,12.67,6.51,7.18,13.15,14.27,19.33,21.72A301.65,301.65,0,0,1,945.19,341c10.89,17.57,20,35.91,25.76,55.9C974.78,410.18,976.89,423.49,975.42,437.36Z"/><path class="cls-2" d="M1023.18,437.36c-.86-26.46-8.3-51.39-18.79-75.48-10-22.9-22.82-44.16-37.56-64.3A422.33,422.33,0,0,0,898,224.19a373.21,373.21,0,0,0-66.05-45c-17.13-9.05-42.58-18.24-55.54-23.07A180.7,180.7,0,0,0,740.82,150a58.36,58.36,0,0,0-6.2-.3c-1.89-.06-3.72-.08-5.47-.07a97.65,97.65,0,0,0-21.79,1.65c-15.87,3-30.39,9-42.58,20-5.09,4.59-8.93,10.24-13.59,15.16a330.88,330.88,0,0,0-44.25,58.17,378,378,0,0,0-35.48,79.91c-9.31,29.32-15.75,59.31-20.63,89.64-3,18.34-5.65,36.73-8.31,55.11-3.08,21.27-5.91,42.59-10.55,63.59a222.81,222.81,0,0,1-51.74,101.71c-15,16.91-31.51,32.46-47.31,48.63-20.4,20.88-41,41.58-61.39,62.45-1.92,2-3.58,2.33-6,1.46a75.3,75.3,0,0,0-14.42-3.74c-14.36-2.14-28.69-3-41.9,4.55-16.43,9.37-26.86,23-27.48,42.56-.3,9.17,1.68,17.93,7.78,25.19,5.24,6.23,12.56,9,20.17,10.85,7.18,1.73,14.49,3,21.76,4.35,8.66,1.65,11.52,4.76,12.3,13.6.55,6.17.87,12.37,1.66,18.52,2.67,20.6,13.16,29.59,32.16,33.14,28.34,5.29,58.8-18.12,59.09-50.58.1-11.79-1.18-23.27-5.18-34.37-.87-2.43-.64-4.15,1.34-6.07,6.29-6.08,12.36-12.4,18.5-18.63,26.63-27,53.34-53.93,79.85-81,27.28-27.91,59.42-47.9,96.72-59.31,25.93-7.92,52.8-11.83,79.27-17.36,35.63-7.45,71.21-15.08,106.24-25,36.67-10.36,72.68-22.63,106.78-40,18.66-9.48,36.55-20.19,52.75-33.51,6.94-5.69,13.49-11.85,20.35-17.64a78.39,78.39,0,0,0,11.93-12.23C1019.44,481.82,1023.94,460.27,1023.18,437.36ZM542.07,652.86s0,.07,0,.11h0c-.11,1.72-.2,3.45-.31,5.17v.05l-.36,5.88c0,.21,0,.42,0,.63h0c-.23,3-.18,6.12-.53,9.16-.18,1.56-.37,3-1.76,4.21-19.46,16.6-36.51,35.67-54.55,53.73-22.33,22.37-44.38,45-66.62,67.49-3.27,3.31-4.08,6.47-2.32,11.09,5.44,14.22,8.79,28.87,5,44.14A36.16,36.16,0,0,1,371,878.93c-7.19-3.16-9.91-9.33-10.81-16.53-.76-6-1.12-12.08-1.69-18.51,2.89,1,4.27,3.33,6,5.13,3.33,3.43,7.32,4,10.59,1.17,3.43-2.94,3.57-7.15.37-10.93-8.18-9.67-18.88-15.44-30.54-19.71-8.6-3.15-17.61-4.5-26.56-6.11-1.78-.32-3.54-.83-5.32-1.2-15.3-3.13-18.61-13.23-15.72-27.58,3.46-17.19,20.26-28.71,38.89-28.09A87.43,87.43,0,0,1,366.3,763c4.5,1.82,7.85,1,11.14-2.31q35.15-35.78,70.38-71.45,15.49-15.71,31.08-31.32c.77-.77,9.71-10.44,12.49-13.6,4.22-4.79,8.23-9.76,12.53-14.9.75,3,1.4,5.66,2.05,8.3h0c.36,2,.83,4,1.08,6,1.89,15.07,6.47,12.34,16.46,10.87.17,0,8.65-1.74,14.7-2.94v0l2.56-.52a1.16,1.16,0,0,1,1.33,1.14ZM998.35,484c-10.28,17.89-26.26,27.75-46.13,31.72-12.75,2.55-25.59,2.4-38.46.72-26.39-3.44-50.86-12.65-74.4-24.67-34-17.39-64-40.38-91.19-67a380.47,380.47,0,0,1-62-78.36c-14.9-25.22-26.5-51.83-31.78-80.8-3.49-19.17-4-38.37,2.89-57.07,8-21.65,23.58-35.07,45.67-41,18.13-4.9,36.36-3.8,54.54-.21C781,172,803,180.66,824.14,191.84c28.94,15.34,55,34.67,79,56.85a394,394,0,0,1,65.12,77.19c16.26,25.37,29.07,52.37,36,81.88,2.56,10.89,4.14,21.94,4.12,28.63C1008.46,456.09,1006,470.72,998.35,484Z"/></g></g></svg>